<?xml version="1.0" encoding="UTF-8" standalone="no"?>
<svg
        xmlns:dc="http://purl.org/dc/elements/1.1/"
        xmlns:cc="http://creativecommons.org/ns#"
        xmlns:rdf="http://www.w3.org/1999/02/22-rdf-syntax-ns#"
        xmlns="http://www.w3.org/2000/svg"
        xmlns:sodipodi="http://sodipodi.sourceforge.net/DTD/sodipodi-0.dtd"
        xmlns:inkscape="http://www.inkscape.org/namespaces/inkscape"
        width="90"
        height="18"
        version="1.1"
        id="svg28"
        sodipodi:docname="index18.svg"
        inkscape:version="0.92.1 r15371">
    <metadata
            id="metadata34">
        <rdf:RDF>
            <cc:Work
                    rdf:about="">
                <dc:format>image/svg+xml</dc:format>
                <dc:type
                        rdf:resource="http://purl.org/dc/dcmitype/StillImage"/>
            </cc:Work>
        </rdf:RDF>
    </metadata>
    <defs
            id="defs32"/>
    <sodipodi:namedview
            pagecolor="#ffffff"
            bordercolor="#666666"
            borderopacity="1"
            objecttolerance="10"
            gridtolerance="10"
            guidetolerance="10"
            inkscape:pageopacity="0"
            inkscape:pageshadow="2"
            inkscape:window-width="1920"
            inkscape:window-height="1027"
            id="namedview30"
            showgrid="false"
            inkscape:zoom="8.4444444"
            inkscape:cx="98.991149"
            inkscape:cy="-3.471197"
            inkscape:window-x="-8"
            inkscape:window-y="-8"
            inkscape:window-maximized="1"
            inkscape:current-layer="g4513"/>
    <g
            fill="#54397e"
            id="g6">
        <path
                d="M33.998 2.567H31.83v-1a.5.5 0 0 0-1 0v1h-3v-1a.5.5 0 0 0-1 0v1h-3v-1a.5.5 0 0 0-1 0v1h-2.165c-.737 0-1.334.596-1.334 1.333v11.833c0 .737.598 1.334 1.335 1.334h13.333c.737 0 1.333-.597 1.333-1.334V3.9c0-.737-.595-1.333-1.332-1.333zm.333 13.166c0 .184-.148.334-.332.334H20.665a.334.334 0 0 1-.334-.334V3.9c0-.184.15-.333.335-.333h2.166v1a.5.5 0 0 0 1 0v-1h3v1a.5.5 0 0 0 1 0v-1h3v1a.5.5 0 0 0 1 0v-1H34c.184 0 .333.15.333.333z"
                id="path2"/>
        <path
                d="M22.83 7.067h2v1.5h-2zM22.83 9.567h2v1.5h-2zM22.83 12.067h2v1.5h-2zM26.33 12.067h2v1.5h-2zM26.33 9.567h2v1.5h-2zM26.33 7.067h2v1.5h-2zM29.83 12.067h2v1.5h-2zM29.83 9.567h2v1.5h-2zM29.83 7.067h2v1.5h-2z"
                id="path4"/>
    </g>
    <g
            fill="#54397e"
            id="g14">
        <path
                d="M42.64 13.745a5.498 5.498 0 0 1-5.493-5.49V3.19a1.95 1.95 0 0 1 1.948-1.948h7.087a1.95 1.95 0 0 1 1.95 1.95v1.645a.476.476 0 0 1-.477.476H44.11a.998.998 0 0 0-.995.997v5.063c0 .59.11 1.163.33 1.704a.476.476 0 0 1-.406.654 5.55 5.55 0 0 1-.4.015zm-3.545-11.55a.998.998 0 0 0-.996.996v5.064c0 2.405 1.88 4.38 4.246 4.53a5.48 5.48 0 0 1-.183-1.41V6.31a1.95 1.95 0 0 1 1.948-1.95h3.07V3.19a.998.998 0 0 0-.998-.996h-7.087z"
                id="path8"/>
        <path
                d="M 52.197,7.954 V 6.31 C 52.196449,5.7596006 51.750399,5.3135512 51.2,5.313 H 44.11 C 43.560382,5.31465 43.115548,5.7603796 43.115,6.31 v 5.063 c 0.0028,2.50623 2.03377,4.537244 4.54,4.54 2.50623,-0.0028 4.537244,-2.03377 4.54,-4.54 v -0.76 m 0.952,0 v 0.76 c -0.0033,3.031777 -2.460223,5.488693 -5.492,5.492 -3.031777,-0.0033 -5.488693,-2.460223 -5.492,-5.492 V 6.31 c -10e-7,-1.0761747 0.871826,-1.9488962 1.948,-1.95 H 51.2 c 1.076955,0 1.95,0.8730447 1.95,1.95 v 1.644"
                id="path10"
                inkscape:connector-curvature="0"
                sodipodi:nodetypes="cccccccccccccscssc"/>
        <path
                d="M45.775 9.874h-.952a.476.476 0 0 1 0-.952h.952a.476.476 0 0 1 0 .952zM50.487 9.874h-.952a.476.476 0 0 1 0-.952h.952a.476.476 0 0 1 0 .952zM47.655 14.3c-.968 0-1.828-.55-2.19-1.4a.476.476 0 1 1 .876-.372c.21.49.738.82 1.315.82s1.105-.33 1.314-.82a.476.476 0 1 1 .875.372c-.362.85-1.222 1.4-2.19 1.4zM40.76 6.755h-.953a.476.476 0 0 1 0-.952h.952a.476.476 0 0 1 0 .952zM40.887 11.182a.474.474 0 0 1-.438-.662c.36-.85 1.22-1.4 2.19-1.4a.476.476 0 0 1 0 .95c-.578 0-1.106.33-1.315.822a.476.476 0 0 1-.438.29z"
                id="path12"/>
    </g>
    <path
            d="M8.73 1.083a7.84 7.84 0 0 0-7.84 7.84 7.84 7.84 0 0 0 7.84 7.84 7.84 7.84 0 0 0 7.84-7.84 7.84 7.84 0 0 0-7.84-7.84zm6.816 7.587h-3.033a10.078 10.078 0 0 0-.58-3.17 8.262 8.262 0 0 0 1.89-1.11 6.795 6.795 0 0 1 1.723 4.28zM8.45 15.738a8.062 8.062 0 0 1-2.06-2.665 7.84 7.84 0 0 1 2.087-.343v3.01l-.026-.002zm.56-13.63c.953.795 1.73 1.86 2.258 3.1-.72.246-1.488.39-2.285.414V2.107c.01 0 .017 0 .026.002zm.842.087a6.81 6.81 0 0 1 3.623 1.828c-.53.406-1.108.75-1.733 1.01a8.895 8.895 0 0 0-1.89-2.838zm-1.375-.088v3.515a7.836 7.836 0 0 1-2.285-.415c.527-1.24 1.305-2.304 2.26-3.098.008-.002.016-.002.025-.003zM5.72 5.034a7.757 7.757 0 0 1-1.735-1.01 6.808 6.808 0 0 1 3.624-1.83 8.885 8.885 0 0 0-1.89 2.84zm.28.64c.78.27 1.612.428 2.477.455v2.54H5.453A9.57 9.57 0 0 1 6 5.674zm2.477 3.502v3.048a8.3 8.3 0 0 0-2.296.39 9.502 9.502 0 0 1-.727-3.438h3.024zm-.868 6.476a6.794 6.794 0 0 1-3.312-1.544 7.688 7.688 0 0 1 1.613-.86 8.76 8.76 0 0 0 1.7 2.404zm1.373.087v-3.01a7.842 7.842 0 0 1 2.09.344 8.068 8.068 0 0 1-2.063 2.664h-.027zm2.567-2.492a7.75 7.75 0 0 1 1.612.86 6.798 6.798 0 0 1-3.31 1.544 8.77 8.77 0 0 0 1.698-2.404zm-.27-.635a8.308 8.308 0 0 0-2.297-.39V9.177h3.025a9.513 9.513 0 0 1-.73 3.437zM8.982 8.67V6.13a8.316 8.316 0 0 0 2.476-.456 9.6 9.6 0 0 1 .548 2.997H8.983zM3.64 4.39A8.27 8.27 0 0 0 5.527 5.5c-.354.98-.553 2.05-.58 3.17H1.913c.06-1.64.7-3.133 1.725-4.28zM1.913 9.175h3.033c.032 1.293.302 2.513.76 3.61a8.21 8.21 0 0 0-1.79.977 6.81 6.81 0 0 1-2.003-4.587zm11.63 4.587a8.223 8.223 0 0 0-1.79-.977c.458-1.097.728-2.318.76-3.61h3.032a6.81 6.81 0 0 1-2.003 4.587z"
            id="path16"
            style="stroke:none"
            fill="#54397e"/>
    <g
            transform="translate(56.723 .798) scale(.03693)"
            id="g24">
        <title
                id="title18">Layer 1
        </title>
        <g
                fill="#54397e"
                stroke="#54397e"
                stroke-width="6"
                id="g22">
            <path
                    d="M204.256 220.513c-23.703 4.38-40.082 18.99-43.812 39.13l-17.892 96.525h50.965a8.37 8.37 0 0 1 0 16.738H132.49c-2.486 0-4.844-1.043-6.434-2.955-1.59-1.91-2.248-4.368-1.795-6.812l19.725-106.482c5.043-27.226 26.436-46.88 57.227-52.57 15.527-2.87 32.057-1.675 46.547 3.367 15.98 5.56 28.595 15.32 36.483 28.22a8.37 8.37 0 1 1-14.28 8.73c-11.646-19.047-38.666-28.892-65.707-23.89zm-27.53-53.062c-9.517-9.877-20.617-28.14-19.462-59.044.02-.493.562-6.632.903-8.62 5.445-31.73 33.715-47.198 59.64-48.11.195-.005.39-.005.586 0 9.454.334 19.22 2.603 28.08 6.89 1.93.933 6.762 3.718 7.25 4.116 14.01 9.222 24.412 24.32 25.213 45.724 1.156 30.904-9.945 49.167-19.46 59.045-11.034 11.455-25.728 17.763-41.376 17.763-15.647 0-30.34-6.31-41.374-17.762zm85.483-58.418c-.383-10.2-3.76-18.375-8.963-24.648-6.45 18.646-19.232 32.467-36.368 38.84a56.49 56.49 0 0 1-19.705 3.538 57.376 57.376 0 0 1-22.765-4.732c1.473 13.926 6.337 25.47 14.37 33.81 7.85 8.148 18.262 12.635 29.32 12.635s21.47-4.487 29.32-12.636c10.417-10.814 15.53-27 14.79-46.808zm-87.622-5.9c10.723 7.184 24.316 8.92 36.457 4.405 13.83-5.145 23.82-17.403 27.986-34.057-6.49-3.11-13.74-4.774-20.93-5.064-19.66.792-39.766 11.835-43.512 34.715zm161.234 289.132c-2.79 1.96-5.986 4.183-9.58 6.77l-28.932 20.834a8.338 8.338 0 0 1-9.762 0l-28.914-20.834c-3.587-2.582-6.7-4.802-9.488-6.76-22.56-15.85-23.763-18.345-23.068-44.514.127-4.797.474-10.766.474-18.01v-41.665c0-2.692 1.123-5.22 3.308-6.792 17.193-12.378 52.212-13.34 62.587-13.34s45.597.962 62.792 13.34c2.184 1.572 3.543 4.1 3.543 6.792v41.664c0 7.242.094 13.21.222 18.007.694 26.17-.635 28.665-23.183 44.507zm6.39-44.063c-.112-4.216-.242-9.327-.278-15.432l-25.95-9.058c-4.364-1.523-6.65-6.295-5.127-10.66 1.522-4.363 6.325-6.668 10.69-5.143l20.5 7.13V292.81c-10.044-4.996-28.535-8.118-49.378-8.118-20.846 0-40.173 3.122-49.38 8.118v21.85l19.16-6.753c4.362-1.525 8.946.78 10.47 5.144a8.368 8.368 0 0 1-5.144 10.66l-24.868 8.677c-.032 6.278-.17 11.51-.285 15.816-.26 9.834-.405 15.25 1.036 18.003 1.508 2.88 6.306 6.253 15.015 12.37a978.917 978.917 0 0 1 9.692 6.874l24.048 17.313 24.046-17.313a984.414 984.414 0 0 1 9.706-6.882c8.703-6.115 13.5-9.484 15.007-12.364 1.44-2.752 1.3-8.17 1.04-18.003zm-42.103 2.475c-1.562 1.66-4.164 3.638-7.695 3.638-3.53 0-6.135-1.98-7.698-3.64a8.37 8.37 0 0 0-12.19 11.47c5.406 5.744 12.468 8.908 19.888 8.908 7.42 0 14.484-3.163 19.886-8.907a8.37 8.37 0 0 0-12.19-11.468zM69.78 182.707c-23.703 4.382-40.082 18.99-43.812 39.13l-17.89 96.526H59.04a8.37 8.37 0 0 1 0 16.738H-1.985c-2.487 0-4.844-1.043-6.434-2.954-1.59-1.912-2.247-4.37-1.794-6.814L9.51 218.852c5.043-27.227 26.436-46.88 57.226-52.572 15.528-2.87 32.058-1.675 46.548 3.368 15.98 5.56 28.596 15.32 36.483 28.22a8.37 8.37 0 1 1-14.28 8.73c-11.645-19.047-38.666-28.892-65.707-23.89zm-27.53-53.06c-9.516-9.88-20.617-28.143-19.46-59.046.017-.493.56-6.632.902-8.62 5.445-31.728 33.714-47.198 59.64-48.108.194-.007.39-.007.586 0 9.454.332 19.22 2.602 28.08 6.888 1.93.934 6.762 3.72 7.25 4.116 14.01 9.222 24.412 24.32 25.213 45.725 1.157 30.904-9.944 49.167-19.46 59.046-11.034 11.454-25.727 17.762-41.375 17.762s-30.342-6.31-41.375-17.762zm85.483-58.42c-.38-10.2-3.76-18.376-8.96-24.65-6.452 18.647-19.233 32.47-36.37 38.842A56.49 56.49 0 0 1 62.7 88.955a57.376 57.376 0 0 1-22.766-4.732c1.473 13.927 6.337 25.47 14.37 33.81 7.85 8.148 18.262 12.636 29.32 12.636 11.06 0 21.472-4.487 29.32-12.636 10.417-10.814 15.53-27 14.79-46.807zm-87.62-5.9c10.722 7.183 24.316 8.92 36.456 4.404 13.83-5.143 23.82-17.402 27.986-34.055-6.49-3.11-13.74-4.775-20.93-5.064-19.66.793-39.767 11.835-43.513 34.716z"
                    stroke-width="5.0214"
                    id="path20"/>
        </g>
    </g>
    <g
            id="g4513"
            transform="matrix(0.21189189,0,0,0.21189189,52.990885,-195.57925)">
        <path
                style="fill:#54397e;fill-opacity:1;stroke:none;stroke-width:2.31959462;stroke-miterlimit:4;stroke-dasharray:none;stroke-opacity:1"
                d="m 132.84522,927.54445 a 37.147316,37.147316 0 0 0 -37.146749,37.14675 37.147316,37.147316 0 0 0 37.146749,37.1467 37.147316,37.147316 0 0 0 37.14674,-37.1467 37.147316,37.147316 0 0 0 -37.14674,-37.14675 z m 0,3.95433 a 33.195473,33.195473 0 0 1 33.20163,33.19242 33.195473,33.195473 0 0 1 -33.20163,33.19241 33.195473,33.195473 0 0 1 -33.192419,-33.19241 33.195473,33.195473 0 0 1 33.192419,-33.19242 z"
                id="path4525"
                inkscape:connector-curvature="0"/>
        <path
                id="path4539"
                d="m 121.51893,944.05229 h 18.30222 a 12.582774,12.582774 0 0 1 0,25.16554 h -13.72666 v 2.74533 h 17.38711 v 4.57559 h -17.38711 v 13.26907 h -4.57556 v -13.26907 h -2.28777 v -4.57559 h 2.28777 v -2.74533 h -2.28777 v -4.57553 h 2.28777 z m 4.57556,4.57559 h 13.72666 a 8.0072198,8.0072198 0 0 1 0,16.01442 h -13.72666 z"
                style="fill:#54397e;fill-opacity:1;fill-rule:evenodd;stroke-width:0.45755538"
                inkscape:connector-curvature="0"/>
    </g>
</svg>
